<?xml version="1.0" ?><!DOCTYPE svg  PUBLIC '-//W3C//DTD SVG 1.1//EN'  'http://www.w3.org/Graphics/SVG/1.1/DTD/svg11.dtd'><svg enable-background="new 0 0 128 128" id="Слой_1" version="1.1" viewBox="0 0 128 128" xml:space="preserve" xmlns="http://www.w3.org/2000/svg" xmlns:xlink="http://www.w3.org/1999/xlink"><g><circle cx="64" cy="64" fill="#FFF6E2" r="60"/><g><g><path d="M64,14c-27.6,0-50,22.4-50,50c0,10.2,3,19.6,8.2,27.5C31.2,77.9,46.5,69,64,69s32.8,8.9,41.8,22.5     C111,83.6,114,74.2,114,64C114,36.4,91.6,14,64,14z M64,59c-8.3,0-15-6.7-15-15c0-8.3,6.7-15,15-15s15,6.7,15,15     C79,52.3,72.3,59,64,59z" fill="#5598A2"/><g><path d="M15,64C15,32.7,38.9,7,69.5,4.3C67.7,4.1,65.9,4,64,4C30.9,4,4,30.9,4,64s26.9,60,60,60      c1.9,0,3.7-0.1,5.5-0.3C38.9,121,15,95.3,15,64z" fill="#FFFFFF"/></g><g><path d="M105.8,93c-0.5,0-1-0.2-1.3-0.7c-9-13.7-24.2-21.8-40.5-21.8s-31.5,8.2-40.5,21.8      c-0.5,0.7-1.4,0.9-2.1,0.4c-0.7-0.5-0.9-1.4-0.4-2.1c9.6-14.5,25.7-23.2,43-23.2s33.4,8.7,43,23.2c0.5,0.7,0.3,1.6-0.4,2.1      C106.3,92.9,106,93,105.8,93z" fill="#4A374F"/></g><g><path d="M63.3,60.5C63.3,60.5,63.3,60.5,63.3,60.5c-8.9-0.4-15.8-7.6-15.8-16.5c0-9.1,7.4-16.5,16.5-16.5      S80.5,34.9,80.5,44c0,8.6-6.7,15.8-15.2,16.5c-0.4,0-0.7-0.1-1-0.3C64,60.4,63.7,60.5,63.3,60.5z M64,30.5      c-7.4,0-13.5,6.1-13.5,13.5c0,7.2,5.7,13.2,12.9,13.5c0.3,0,0.6,0.1,0.8,0.3c0.2-0.2,0.5-0.3,0.8-0.3C72,56.9,77.5,51,77.5,44      C77.5,36.6,71.4,30.5,64,30.5z" fill="#4A374F"/></g></g><g><path d="M64,60.5c-9.1,0-16.5-7.4-16.5-16.5S54.9,27.5,64,27.5S80.5,34.9,80.5,44S73.1,60.5,64,60.5z M64,30.5     c-7.4,0-13.5,6.1-13.5,13.5S56.6,57.5,64,57.5S77.5,51.4,77.5,44S71.4,30.5,64,30.5z" fill="#4A374F"/></g><g><path d="M64,125.5C30.1,125.5,2.5,97.9,2.5,64S30.1,2.5,64,2.5s61.5,27.6,61.5,61.5S97.9,125.5,64,125.5z M64,5.5     C31.7,5.5,5.5,31.7,5.5,64s26.2,58.5,58.5,58.5s58.5-26.2,58.5-58.5S96.3,5.5,64,5.5z" fill="#4A374F"/></g></g></g></svg>